<?xml version="1.0" encoding="utf-8"?>
<!-- Generator: Adobe Illustrator 19.2.0, SVG Export Plug-In . SVG Version: 6.00 Build 0)  -->
<svg version="1.1" id="Layer_1" xmlns="http://www.w3.org/2000/svg" xmlns:xlink="http://www.w3.org/1999/xlink" x="0px" y="0px"
	 viewBox="0 0 49.2 40.4" style="enable-background:new 0 0 49.2 40.4;" xml:space="preserve">
<style type="text/css">
	.st0{fill:#FFFFFF;}
</style>
<g>
	<path class="st0" d="M49,19.7C49,19.7,49,19.7,49,19.7c0.1,0,0.2-0.1,0.2-0.1c0-0.1,0-0.2-0.1-0.2c-2.3-0.4-4-0.9-9.7-0.8
		c0.4-1.3,0.5-2.9,0.6-4.7c0-5-2.4-6.8-2.9-7.6c0.7-3.8-0.1-5.5-0.5-6.1c-1.4-0.5-4.7,1.2-6.5,2.5c-3-0.9-9.3-0.8-11.7,0.2
		c-4.4-3.1-6.7-2.7-6.7-2.7s-1.5,2.7-0.4,6.6c-1.4,1.8-2.5,3.1-2.5,6.6c0,1.9,0.2,3.7,0.7,5.2c-2.3,0-7.1,0.3-9.3,0.9
		C0,19.4,0,19.5,0,19.5c0,0.1,0.1,0.1,0.2,0.1c0,0,0,0,0,0c2.3-0.6,7.2-0.9,9.4-0.8c0.1,0.3,0.3,0.6,0.4,0.9c-5.5,0.1-7,0.9-9.3,1.5
		c-0.2,0-0.3,0.1-0.5,0.1c-0.1,0-0.1,0.1-0.1,0.2c0,0.1,0.1,0.1,0.2,0.1c0,0,0,0,0,0c0.2,0,0.3-0.1,0.5-0.1c2.3-0.6,3.8-1.4,9.4-1.5
		c1.6,3,4.8,4.8,10.2,5.4c-0.8,0.6-1.7,1.7-1.8,3c-1,0.6-2.9,0.8-4.4,0.4c-2.1-0.7-2.9-4.8-6.1-4.2c-0.7,0.1-0.5,0.6,0,1
		c1,0.6,1.9,1.4,2.6,3.1c0.5,1.3,1.7,3.5,5.2,3.5c1.4,0,2.4-0.2,2.4-0.2s0,3.2,0,4.5c0,1.5-2,1.9-2,2.6c0,0.3,0.6,0.3,1.2,0.3
		c1,0,3.2-0.9,3.2-2.4c0-1.2,0-5.2,0-5.9c0-1.5,0.8-2,0.8-2s0.1,8.2-0.2,9.3c-0.4,1.3-1,1.1-1,1.7c0,0.9,2.6,0.2,3.4-1.7
		c0.7-1.5,0.4-9.6,0.4-9.6l0.7,0c0,0,0,3.7,0,5.4c0,1.8-0.1,4,0.9,5c0.7,0.7,2.9,1.9,2.9,0.8c0-0.6-1.2-1.2-1.2-2.9c0-1.9,0-7.4,0-8
		c1,0,0.8,2.6,0.8,2.6l0.1,4.9c0,0-0.2,1.8,1.9,2.5c0.8,0.3,2.4,0.3,2.4-0.1c0.1-0.4-1.9-1.1-2-2.5c0-0.8,0-1.3,0-5s-0.5-5-2.2-6.1
		c5.3-0.5,8.5-1.8,10.1-5.3c1.8,0.1,5.6,0.2,10.1,1.6c0,0,0,0,0,0c0.1,0,0.1,0,0.2-0.1c0-0.1,0-0.2-0.1-0.2c-4.4-1.3-8.1-1.5-10-1.6
		c0.1-0.3,0.2-0.6,0.3-1C45,18.8,46.6,19.2,49,19.7z M9.1,25.2c-0.2,0-0.4-0.1-0.4-0.3c0-0.1,0.2-0.3,0.4-0.3s0.4,0.1,0.4,0.3
		C9.5,25.1,9.3,25.2,9.1,25.2z M10.3,25.9c-0.2,0-0.4-0.1-0.4-0.3c0-0.1,0.2-0.3,0.4-0.3s0.4,0.1,0.4,0.3
		C10.7,25.7,10.5,25.9,10.3,25.9z M10.6,26.5c0-0.1,0.2-0.3,0.4-0.3s0.4,0.1,0.4,0.3c0,0.1-0.2,0.3-0.4,0.3S10.6,26.6,10.6,26.5z
		 M11.7,27.7c-0.2,0-0.4-0.1-0.4-0.3c0-0.1,0.2-0.3,0.4-0.3c0.2,0,0.4,0.1,0.4,0.3C12,27.6,11.9,27.7,11.7,27.7z M12.4,28.6
		c-0.2,0-0.4-0.1-0.4-0.3c0-0.1,0.2-0.3,0.4-0.3s0.4,0.1,0.4,0.3C12.8,28.5,12.6,28.6,12.4,28.6z M13.4,29.4c-0.2,0-0.4-0.1-0.4-0.3
		c0-0.1,0.2-0.3,0.4-0.3s0.4,0.1,0.4,0.3C13.7,29.3,13.6,29.4,13.4,29.4z M14.7,29.9c-0.2,0-0.4-0.1-0.4-0.3c0-0.1,0.2-0.3,0.4-0.3
		s0.4,0.1,0.4,0.3C15.1,29.8,14.9,29.9,14.7,29.9z M16.1,29.9c-0.2,0-0.4-0.1-0.4-0.3c0-0.1,0.2-0.3,0.4-0.3s0.4,0.1,0.4,0.3
		C16.5,29.8,16.3,29.9,16.1,29.9z M17.5,29.7c-0.2,0-0.4-0.1-0.4-0.3s0.2-0.3,0.4-0.3c0.2,0,0.4,0.1,0.4,0.3S17.7,29.7,17.5,29.7z
		 M28.3,24.3c-1.1,0-2.3,0.1-3.5,0.1c-1.2,0-2.4,0-3.4-0.1c-5.8-0.2-9-2.6-9-6.9c0-0.4,0.1-2,1.3-3.4c1.2-1.4,2.9-2.1,5.1-2.1
		c0.2,0,0.4,0,1,0.1c1.2,0.1,3.1,0.2,5.1,0.2c1.8,0,3.5-0.1,4.5-0.2c0.4,0,0.6,0,0.7,0c4.7,0,6.4,3,6.4,5.8
		C36.4,20.6,35,24,28.3,24.3z"/>
	<path class="st0" d="M8,27.9c0.9,0,0-1.4,0-2.1C8,26.5,7.1,27.9,8,27.9z"/>
	<path class="st0" d="M31.2,14c-1.3,0-2.4,1.6-2.4,3.6c0,2,1.1,3.4,2.4,3.4c1.3,0,2.4-1.4,2.4-3.4C33.6,15.6,32.5,14,31.2,14z"/>
	<path class="st0" d="M18.1,14c-1.3,0-2.4,1.6-2.4,3.6c0,2,1.1,3.4,2.4,3.4c1.3,0,2.4-1.4,2.4-3.4C20.5,15.6,19.5,14,18.1,14z"/>
	<circle class="st0" cx="24.4" cy="20.6" r="0.6"/>
	<path class="st0" d="M24.4,23.2c-1.1,0-1.5-1-1.5-1.1c0-0.1,0-0.3,0.2-0.3c0.1,0,0.3,0,0.3,0.1c0,0,0.3,0.8,1,0.8
		c0.9,0,1.1-0.7,1.1-0.7c0-0.1,0.2-0.2,0.3-0.2c0.1,0,0.2,0.2,0.2,0.3C25.9,22.5,25.4,23.2,24.4,23.2z"/>
</g>
</svg>
